<svg xmlns="http://www.w3.org/2000/svg" xmlns:xlink="http://www.w3.org/1999/xlink" width="52.221" height="52.243" viewBox="0 0 52.221 52.243">
  <defs>
    <linearGradient id="linear-gradient" x1="0.188" y1="0.252" x2="0.812" y2="0.761" gradientUnits="objectBoundingBox">
      <stop offset="0" stop-color="#8bc727"/>
      <stop offset="1" stop-color="#017b4e"/>
    </linearGradient>
    <linearGradient id="linear-gradient-2" x1="0.47" y1="0.798" x2="0.47" y2="1.239" gradientUnits="objectBoundingBox">
      <stop offset="0" stop-color="#026841" stop-opacity="0"/>
      <stop offset="0.239" stop-color="#0a6644" stop-opacity="0.239"/>
      <stop offset="0.611" stop-color="#20604d" stop-opacity="0.612"/>
      <stop offset="1" stop-color="#3e5959"/>
    </linearGradient>
    <linearGradient id="linear-gradient-3" x1="0.429" y1="0.523" x2="0.429" y2="1.437" xlink:href="#linear-gradient-2"/>
    <linearGradient id="linear-gradient-4" x1="0.374" y1="0.488" x2="0.374" y2="1.561" xlink:href="#linear-gradient-2"/>
    <linearGradient id="linear-gradient-5" x1="0.301" y1="0.412" x2="0.301" y2="1.439" xlink:href="#linear-gradient-2"/>
    <linearGradient id="linear-gradient-6" x1="0.207" y1="0.4" x2="0.207" y2="1.517" xlink:href="#linear-gradient-2"/>
    <linearGradient id="linear-gradient-7" x1="0.081" y1="0.264" x2="0.081" y2="1.593" xlink:href="#linear-gradient-2"/>
    <linearGradient id="linear-gradient-8" x1="-0.095" y1="0.149" x2="-0.095" y2="1.493" xlink:href="#linear-gradient-2"/>
    <linearGradient id="linear-gradient-9" x1="-0.349" y1="0.022" x2="-0.349" y2="1.55" xlink:href="#linear-gradient-2"/>
    <linearGradient id="linear-gradient-10" x1="-0.821" y1="-0.416" x2="-0.821" y2="2.026" xlink:href="#linear-gradient-2"/>
    <linearGradient id="linear-gradient-11" x1="0.732" y1="0.646" x2="0.418" y2="0.413" xlink:href="#linear-gradient-2"/>
    <linearGradient id="linear-gradient-12" x1="0.484" y1="0.484" x2="0.525" y2="0.525" xlink:href="#linear-gradient"/>
  </defs>
  <g id="tropical-leaves_2_" data-name="tropical-leaves (2)" transform="translate(-0.111 0)">
    <g id="Group_9396" data-name="Group 9396" transform="translate(1.713 0)">
      <path id="Path_16765" data-name="Path 16765" d="M49.134,42.531a58.522,58.522,0,0,0,9.475-10.5,10.184,10.184,0,0,0,1.671-3.942A8.682,8.682,0,0,1,63.339,23a4.032,4.032,0,0,0,1.194-1.634l0-.01a24.423,24.423,0,0,0,1.213-3.993,4.8,4.8,0,0,0-.516-3.241,1.329,1.329,0,0,1,.481-1.75,1.315,1.315,0,0,0,.654-1.112,34.407,34.407,0,0,0-.5-5.711A6.173,6.173,0,0,0,60.825.5,34.406,34.406,0,0,0,55.114,0,1.315,1.315,0,0,0,54,.654a1.329,1.329,0,0,1-1.75.481A4.8,4.8,0,0,0,49.01.619a24.42,24.42,0,0,0-3.993,1.213l-.01,0a4.033,4.033,0,0,0-1.634,1.194A8.681,8.681,0,0,1,38.282,6.09a10.184,10.184,0,0,0-3.942,1.671,58.526,58.526,0,0,0-10.5,9.475A8.1,8.1,0,0,0,22.1,21.008a1.7,1.7,0,0,1-1.085,1.272,3.534,3.534,0,0,0-1.874,1.569c-4.265,7.547-5.08,15.666.935,22.448,6.781,6.015,14.9,5.2,22.448.935a3.534,3.534,0,0,0,1.569-1.874,1.7,1.7,0,0,1,1.272-1.085,8.1,8.1,0,0,0,3.771-1.741Z" transform="translate(-15.752 0)" fill="url(#linear-gradient)"/>
      <path id="Path_16766" data-name="Path 16766" d="M50.406,47.231a3.534,3.534,0,0,0,1.569-1.874,1.7,1.7,0,0,1,1.272-1.085,8.1,8.1,0,0,0,3.771-1.741,58.526,58.526,0,0,0,9.475-10.5,10.184,10.184,0,0,0,1.671-3.942A8.682,8.682,0,0,1,71.223,23a4.032,4.032,0,0,0,1.194-1.634l0-.01a24.423,24.423,0,0,0,1.213-3.993,4.8,4.8,0,0,0-.516-3.241,1.329,1.329,0,0,1,.481-1.75,1.315,1.315,0,0,0,.654-1.112,34.406,34.406,0,0,0-.5-5.711A6.173,6.173,0,0,0,68.709.5,34.406,34.406,0,0,0,63,0a1.315,1.315,0,0,0-1.112.654,1.329,1.329,0,0,1-1.75.481A4.8,4.8,0,0,0,56.894.619,24.42,24.42,0,0,0,52.9,1.833l-.01,0a4.033,4.033,0,0,0-1.634,1.194A8.681,8.681,0,0,1,46.166,6.09a10.184,10.184,0,0,0-3.942,1.671,58.526,58.526,0,0,0-10.5,9.475,8.1,8.1,0,0,0-1.741,3.771A1.7,1.7,0,0,1,28.9,22.279a3.534,3.534,0,0,0-1.874,1.569,28.462,28.462,0,0,0-2.487,5.7,53.364,53.364,0,0,0,2.815,7.209c1.133,2.4.653,5.7.085,8.021a1.586,1.586,0,0,0,.329,1.288c.065.076.127.152.194.228h0c.075.066.151.128.226.192a1.586,1.586,0,0,0,1.289.329c2.324-.569,5.618-1.049,8.021.086A53.347,53.347,0,0,0,44.7,49.718a28.453,28.453,0,0,0,5.7-2.487Z" transform="translate(-23.636 0)" fill="url(#linear-gradient-2)"/>
      <path id="Path_16767" data-name="Path 16767" d="M83.144,45.357a1.7,1.7,0,0,1,1.272-1.085,8.1,8.1,0,0,0,3.771-1.741,58.527,58.527,0,0,0,9.475-10.5,10.184,10.184,0,0,0,1.671-3.942A8.682,8.682,0,0,1,102.392,23a4.032,4.032,0,0,0,1.194-1.634l0-.01A24.423,24.423,0,0,0,104.8,17.36a4.8,4.8,0,0,0-.516-3.241,1.329,1.329,0,0,1,.481-1.75,1.315,1.315,0,0,0,.654-1.112,34.406,34.406,0,0,0-.5-5.711A6.173,6.173,0,0,0,99.878.5,34.406,34.406,0,0,0,94.167,0a1.315,1.315,0,0,0-1.112.654,1.329,1.329,0,0,1-1.75.481A4.8,4.8,0,0,0,88.063.619,24.42,24.42,0,0,0,84.07,1.833l-.01,0a4.033,4.033,0,0,0-1.634,1.194A8.681,8.681,0,0,1,77.335,6.09a10.184,10.184,0,0,0-3.942,1.671,58.526,58.526,0,0,0-10.5,9.475,8.1,8.1,0,0,0-1.741,3.771,1.7,1.7,0,0,1-1.085,1.272,3.656,3.656,0,0,0-.8.413,46.794,46.794,0,0,0,3.561,10.273c1.076,2.281.62,5.409.081,7.617a1.737,1.737,0,0,0,1.936,1.935c2.207-.54,5.335-1,7.617.081A46.786,46.786,0,0,0,82.731,46.16a3.649,3.649,0,0,0,.413-.8Z" transform="translate(-54.805 0)" fill="url(#linear-gradient-3)"/>
      <path id="Path_16768" data-name="Path 16768" d="M134.714,28.088A8.682,8.682,0,0,1,137.773,23a4.032,4.032,0,0,0,1.194-1.634l0-.01a24.423,24.423,0,0,0,1.213-3.993,4.8,4.8,0,0,0-.516-3.241,1.329,1.329,0,0,1,.481-1.75,1.315,1.315,0,0,0,.654-1.112,34.405,34.405,0,0,0-.5-5.711A6.173,6.173,0,0,0,135.259.5a34.406,34.406,0,0,0-5.711-.5,1.315,1.315,0,0,0-1.112.654,1.329,1.329,0,0,1-1.75.481,4.8,4.8,0,0,0-3.241-.516,24.42,24.42,0,0,0-3.993,1.213l-.01,0a4.033,4.033,0,0,0-1.634,1.194,8.681,8.681,0,0,1-5.091,3.059,10.184,10.184,0,0,0-3.942,1.671A58.855,58.855,0,0,0,98.681,16.77a41.437,41.437,0,0,0,3.827,12.4c1.019,2.16.587,5.123.076,7.214a1.645,1.645,0,0,0,1.834,1.833c2.09-.511,5.053-.944,7.214.077a41.428,41.428,0,0,0,12.4,3.826,58.864,58.864,0,0,0,9.007-10.092,10.184,10.184,0,0,0,1.671-3.942Z" transform="translate(-90.186 0)" fill="url(#linear-gradient-4)"/>
      <path id="Path_16769" data-name="Path 16769" d="M171.4,32.031a10.184,10.184,0,0,0,1.671-3.942A8.682,8.682,0,0,1,176.134,23a4.032,4.032,0,0,0,1.194-1.634l0-.01a24.424,24.424,0,0,0,1.213-3.993,4.8,4.8,0,0,0-.516-3.241,1.329,1.329,0,0,1,.481-1.75,1.315,1.315,0,0,0,.654-1.112,34.407,34.407,0,0,0-.5-5.711A6.173,6.173,0,0,0,173.62.5a34.406,34.406,0,0,0-5.711-.5A1.315,1.315,0,0,0,166.8.654a1.329,1.329,0,0,1-1.75.481,4.8,4.8,0,0,0-3.241-.516,24.42,24.42,0,0,0-3.993,1.213l-.01,0a4.033,4.033,0,0,0-1.634,1.194,8.681,8.681,0,0,1-5.091,3.059,10.184,10.184,0,0,0-3.942,1.671,61.143,61.143,0,0,0-5.714,4.58,37.756,37.756,0,0,0,3.752,13.037c.962,2.039.554,4.836.072,6.81a1.553,1.553,0,0,0,1.731,1.73c1.973-.483,4.77-.891,6.81.073a37.753,37.753,0,0,0,13.038,3.751,61.109,61.109,0,0,0,4.58-5.713Z" transform="translate(-128.547 0)" fill="url(#linear-gradient-5)"/>
      <path id="Path_16770" data-name="Path 16770" d="M210.659,32.031a10.184,10.184,0,0,0,1.671-3.942A8.682,8.682,0,0,1,215.39,23a4.032,4.032,0,0,0,1.194-1.634l0-.01A24.424,24.424,0,0,0,217.8,17.36a4.8,4.8,0,0,0-.516-3.241,1.329,1.329,0,0,1,.481-1.75,1.315,1.315,0,0,0,.654-1.112,34.407,34.407,0,0,0-.5-5.711A6.173,6.173,0,0,0,212.876.5a34.406,34.406,0,0,0-5.711-.5,1.315,1.315,0,0,0-1.112.654,1.329,1.329,0,0,1-1.75.481,4.8,4.8,0,0,0-3.241-.516,24.42,24.42,0,0,0-3.993,1.213l-.01,0a4.033,4.033,0,0,0-1.634,1.194,8.681,8.681,0,0,1-5.091,3.059,10.184,10.184,0,0,0-3.942,1.671q-.621.439-1.234.9a34.86,34.86,0,0,0,3.575,12.927c.905,1.918.521,4.55.068,6.407a1.461,1.461,0,0,0,1.628,1.628c1.856-.454,4.487-.838,6.407.068a34.856,34.856,0,0,0,12.927,3.574q.457-.613.9-1.233Z" transform="translate(-167.803 0)" fill="url(#linear-gradient-6)"/>
      <path id="Path_16771" data-name="Path 16771" d="M252.332,28.088A8.682,8.682,0,0,1,255.392,23a4.032,4.032,0,0,0,1.194-1.634l0-.01A24.421,24.421,0,0,0,257.8,17.36a4.8,4.8,0,0,0-.516-3.241,1.329,1.329,0,0,1,.481-1.75,1.315,1.315,0,0,0,.654-1.112,34.407,34.407,0,0,0-.5-5.711A6.173,6.173,0,0,0,252.877.5a34.406,34.406,0,0,0-5.711-.5,1.315,1.315,0,0,0-1.112.654,1.329,1.329,0,0,1-1.75.481,4.8,4.8,0,0,0-3.241-.516,24.42,24.42,0,0,0-3.993,1.213l-.01,0a4.033,4.033,0,0,0-1.634,1.194,8.681,8.681,0,0,1-5.091,3.059c-.205.04-.409.088-.611.14a33.214,33.214,0,0,0,3.313,11.563c.848,1.8.488,4.263.064,6a1.369,1.369,0,0,0,1.526,1.525c1.739-.426,4.2-.785,6,.064A33.213,33.213,0,0,0,252.193,28.7C252.245,28.5,252.292,28.294,252.332,28.088Z" transform="translate(-207.804 0)" fill="url(#linear-gradient-7)"/>
      <path id="Path_16772" data-name="Path 16772" d="M295.846,23a4.032,4.032,0,0,0,1.194-1.634l0-.01a24.421,24.421,0,0,0,1.213-3.993,4.8,4.8,0,0,0-.516-3.241,1.329,1.329,0,0,1,.481-1.75,1.315,1.315,0,0,0,.654-1.112,34.407,34.407,0,0,0-.5-5.711A6.173,6.173,0,0,0,293.332.5a34.406,34.406,0,0,0-5.711-.5,1.315,1.315,0,0,0-1.112.654,1.329,1.329,0,0,1-1.75.481,4.8,4.8,0,0,0-3.241-.516,24.42,24.42,0,0,0-3.993,1.213l-.01,0a4.033,4.033,0,0,0-1.634,1.194A8.682,8.682,0,0,1,274.8,4.148a31.948,31.948,0,0,0,3,9.852c.791,1.677.456,3.977.059,5.6a1.277,1.277,0,0,0,1.423,1.423c1.622-.4,3.922-.732,5.6.06a31.944,31.944,0,0,0,9.853,3A8.693,8.693,0,0,1,295.846,23Z" transform="translate(-248.259 0)" fill="url(#linear-gradient-8)"/>
      <path id="Path_16773" data-name="Path 16773" d="M338,17.36a4.8,4.8,0,0,0-.516-3.241,1.329,1.329,0,0,1,.481-1.75,1.315,1.315,0,0,0,.654-1.112,34.4,34.4,0,0,0-.5-5.711A6.173,6.173,0,0,0,333.076.5a34.406,34.406,0,0,0-5.711-.5,1.315,1.315,0,0,0-1.112.654,1.329,1.329,0,0,1-1.75.481,4.8,4.8,0,0,0-3.241-.516q-1.087.233-2.187.573a29.769,29.769,0,0,0,2.767,9.015c.734,1.556.423,3.69.055,5.2a1.185,1.185,0,0,0,1.321,1.32c1.505-.368,3.64-.68,5.2.056a29.767,29.767,0,0,0,9.015,2.767C337.657,18.815,337.847,18.084,338,17.36Z" transform="translate(-288.003 0)" fill="url(#linear-gradient-9)"/>
      <path id="Path_16774" data-name="Path 16774" d="M381.887,14.118a1.329,1.329,0,0,1,.481-1.75,1.315,1.315,0,0,0,.654-1.112,34.407,34.407,0,0,0-.5-5.711A6.173,6.173,0,0,0,377.477.5a34.406,34.406,0,0,0-5.711-.5,1.315,1.315,0,0,0-1.112.654,1.329,1.329,0,0,1-1.75.481c-.118-.062-.239-.119-.361-.173a30.555,30.555,0,0,0,2,5.452,7.728,7.728,0,0,1,.051,4.793,1.093,1.093,0,0,0,1.218,1.218,7.717,7.717,0,0,1,4.793.051,30.556,30.556,0,0,0,5.452,2c-.053-.122-.111-.242-.173-.36Z" transform="translate(-332.404 0)" fill="url(#linear-gradient-10)"/>
      <path id="Path_16775" data-name="Path 16775" d="M98.154,47.527a8.682,8.682,0,0,1,3.06-5.091,4.032,4.032,0,0,0,1.194-1.634l0-.01a24.423,24.423,0,0,0,1.213-3.993,4.8,4.8,0,0,0-.516-3.241,1.329,1.329,0,0,1,.481-1.75,1.315,1.315,0,0,0,.654-1.112,34.406,34.406,0,0,0-.5-5.711,6.17,6.17,0,0,0-1.72-3.327L57.949,65.734c6.781,6.015,14.9,5.2,22.448.935A3.534,3.534,0,0,0,81.965,64.8a1.7,1.7,0,0,1,1.272-1.085,8.1,8.1,0,0,0,3.771-1.741,58.526,58.526,0,0,0,9.475-10.5,10.188,10.188,0,0,0,1.671-3.942Z" transform="translate(-53.626 -19.438)" fill="url(#linear-gradient-11)"/>
    </g>
    <path id="Path_16776" data-name="Path 16776" d="M.912,82.671A.8.8,0,0,1,.346,81.3L47.514,34.135a.8.8,0,0,1,1.133,1.133L1.479,82.437a.8.8,0,0,1-.567.235Z" transform="translate(0 -30.428)" fill="url(#linear-gradient-12)"/>
  </g>
</svg>
