<svg xmlns="http://www.w3.org/2000/svg" xmlns:xlink="http://www.w3.org/1999/xlink" width="54.173" height="55.507" viewBox="0 0 54.173 55.507">
  <defs>
    <linearGradient id="linear-gradient" x1="0.903" y1="0.495" x2="1.261" y2="0.495" gradientUnits="objectBoundingBox">
      <stop offset="0" stop-color="#bbec6c"/>
      <stop offset="1" stop-color="#81b823"/>
    </linearGradient>
    <linearGradient id="linear-gradient-2" x1="1.086" y1="0.81" x2="1.086" y2="0.508" gradientUnits="objectBoundingBox">
      <stop offset="0" stop-color="#47a920" stop-opacity="0"/>
      <stop offset="0.242" stop-color="#459a2a" stop-opacity="0.243"/>
      <stop offset="0.7" stop-color="#417545" stop-opacity="0.702"/>
      <stop offset="1" stop-color="#3e5959"/>
    </linearGradient>
    <linearGradient id="linear-gradient-3" x1="-0.06" y1="0.351" x2="0.948" y2="0.634" gradientUnits="objectBoundingBox">
      <stop offset="0" stop-color="#8bc727"/>
      <stop offset="1" stop-color="#017b4e"/>
    </linearGradient>
    <linearGradient id="linear-gradient-4" x1="0.382" y1="0.501" x2="0.055" y2="0.572" gradientUnits="objectBoundingBox">
      <stop offset="0" stop-color="#026841" stop-opacity="0"/>
      <stop offset="0.238" stop-color="#0a6644" stop-opacity="0.239"/>
      <stop offset="0.608" stop-color="#20614d" stop-opacity="0.608"/>
      <stop offset="1" stop-color="#3e5959"/>
    </linearGradient>
    <linearGradient id="linear-gradient-5" x1="0.395" y1="0.812" x2="0.395" y2="1.076" xlink:href="#linear-gradient-4"/>
    <linearGradient id="linear-gradient-6" x1="0.387" y1="0.78" x2="0.387" y2="1.089" xlink:href="#linear-gradient-4"/>
    <linearGradient id="linear-gradient-7" x1="0.366" y1="0.486" x2="0.366" y2="1.198" xlink:href="#linear-gradient-4"/>
    <linearGradient id="linear-gradient-8" x1="-0.002" y1="0.415" x2="-0.002" y2="1.118" xlink:href="#linear-gradient-4"/>
    <linearGradient id="linear-gradient-9" x1="0.469" y1="0.435" x2="-0.177" y2="0.545" xlink:href="#linear-gradient-4"/>
    <linearGradient id="linear-gradient-10" x1="209.181" y1="123.891" x2="209.244" y2="123.911" xlink:href="#linear-gradient"/>
    <linearGradient id="linear-gradient-11" x1="18.968" y1="10.76" x2="19.034" y2="10.777" xlink:href="#linear-gradient"/>
    <linearGradient id="linear-gradient-12" x1="-0.37" y1="0.723" x2="-0.012" y2="0.723" xlink:href="#linear-gradient"/>
    <linearGradient id="linear-gradient-13" x1="-0.199" y1="1.062" x2="-0.199" y2="0.76" xlink:href="#linear-gradient-2"/>
    <linearGradient id="linear-gradient-14" x1="0.126" y1="0.456" x2="1.134" y2="0.739" xlink:href="#linear-gradient-3"/>
    <linearGradient id="linear-gradient-15" x1="0.581" y1="0.928" x2="0.581" y2="1.191" xlink:href="#linear-gradient-4"/>
    <linearGradient id="linear-gradient-16" x1="0.588" y1="0.923" x2="0.588" y2="1.232" xlink:href="#linear-gradient-4"/>
    <linearGradient id="linear-gradient-17" x1="0.608" y1="0.714" x2="0.608" y2="1.426" xlink:href="#linear-gradient-4"/>
    <linearGradient id="linear-gradient-18" x1="0.936" y1="0.865" x2="0.936" y2="1.568" xlink:href="#linear-gradient-4"/>
    <linearGradient id="linear-gradient-19" x1="1.045" y1="0.54" x2="0.398" y2="0.651" xlink:href="#linear-gradient-4"/>
    <linearGradient id="linear-gradient-20" x1="-1842.337" y1="413.348" x2="-1842.275" y2="413.37" xlink:href="#linear-gradient"/>
    <linearGradient id="linear-gradient-21" x1="-161.591" y1="34.723" x2="-161.525" y2="34.74" xlink:href="#linear-gradient"/>
  </defs>
  <g id="arugula" transform="translate(-6.132 -0.001)">
    <g id="Group_9273" data-name="Group 9273" transform="translate(26.157 0.001)">
      <g id="Group_9269" data-name="Group 9269" transform="translate(5.054 34.095)">
        <path id="Path_16655" data-name="Path 16655" d="M237.586,334.625a1.393,1.393,0,0,1-.985-1.706l4.991-18.627a1.393,1.393,0,0,1,2.691.721l-4.991,18.626A1.393,1.393,0,0,1,237.586,334.625Z" transform="translate(-236.553 -313.26)" fill="url(#linear-gradient)"/>
        <path id="Path_16656" data-name="Path 16656" d="M245.867,313.308a1.393,1.393,0,0,0-1.706.985l-4.725,17.634,2.691.721,4.725-17.634A1.393,1.393,0,0,0,245.867,313.308Z" transform="translate(-239.122 -313.26)" fill="url(#linear-gradient-2)"/>
      </g>
      <g id="Group_9272" data-name="Group 9272" transform="translate(0 0)">
        <path id="Path_16657" data-name="Path 16657" d="M224.1,15.343l-.027-.109c-.792-3.179-4.052-5.147-6.9-4.108l-.011,0a.558.558,0,0,1-.73-.685c.061-.2.11-.368.147-.505a7.894,7.894,0,1,0-15.251-4.086c-.037.138-.079.309-.125.511a.558.558,0,0,1-.975.228l-.008-.009c-1.944-2.323-5.752-2.249-8.028.109l-.078.081a4.886,4.886,0,0,0,.441,7.517,21.847,21.847,0,0,1,5.921,5.942,1.519,1.519,0,0,1,.237,1.046l0,.034a1.518,1.518,0,0,1-2.344,1.063l-.163-.107a4.016,4.016,0,0,0-5.6,1.84l-.037.074a3.589,3.589,0,0,0,1.961,5.172,17.254,17.254,0,0,1,3.091,1.287,3.3,3.3,0,0,1,1.718,3.151q-.02.261-.038.519a.974.974,0,0,1-1.508.74l-.015-.01a3.094,3.094,0,0,0-4.316,1.417l-.028.057a2.764,2.764,0,0,0,1.51,3.983,13.371,13.371,0,0,1,2.261.927,4.212,4.212,0,0,1,2.156,2.988c.237,1.295.626,2.107,1.208,2.263s1.326-.353,2.178-1.356a4.213,4.213,0,0,1,3.361-1.51,13.373,13.373,0,0,1,2.422.327,2.764,2.764,0,0,0,3.3-2.695l0-.063a3.094,3.094,0,0,0-3.029-3.385h-.018a.974.974,0,0,1-.936-1.395l.226-.469a3.3,3.3,0,0,1,3.063-1.87,17.255,17.255,0,0,1,3.321.431,3.589,3.589,0,0,0,4.284-3.5l0-.082a4.016,4.016,0,0,0-3.932-4.395l-.2.011a1.518,1.518,0,0,1-1.5-2.092l.013-.032a1.518,1.518,0,0,1,.729-.787,21.849,21.849,0,0,1,8.1-2.185A4.886,4.886,0,0,0,224.1,15.343Z" transform="translate(-190.119 -0.001)" fill="url(#linear-gradient-3)"/>
        <path id="Path_16658" data-name="Path 16658" d="M224.1,15.343l-.027-.109c-.792-3.179-4.052-5.147-6.9-4.108l-.011,0a.558.558,0,0,1-.73-.685c.061-.2.11-.368.147-.505a7.894,7.894,0,1,0-15.251-4.086c-.037.138-.079.309-.125.511a.558.558,0,0,1-.975.228l-.008-.009c-1.944-2.323-5.752-2.249-8.028.109l-.078.081a4.886,4.886,0,0,0,.441,7.517,21.847,21.847,0,0,1,5.921,5.942,1.519,1.519,0,0,1,.237,1.046l0,.034a1.518,1.518,0,0,1-2.344,1.063l-.163-.107a4.016,4.016,0,0,0-5.6,1.84l-.037.074a3.589,3.589,0,0,0,1.961,5.172,17.254,17.254,0,0,1,3.091,1.287,3.3,3.3,0,0,1,1.718,3.151q-.02.261-.038.519a.974.974,0,0,1-1.508.74l-.015-.01a3.094,3.094,0,0,0-4.316,1.417l-.028.057a2.764,2.764,0,0,0,1.51,3.983,13.371,13.371,0,0,1,2.261.927,4.212,4.212,0,0,1,2.156,2.988c.237,1.295.626,2.107,1.208,2.263s1.326-.353,2.178-1.356a4.213,4.213,0,0,1,3.361-1.51,13.373,13.373,0,0,1,2.422.327,2.764,2.764,0,0,0,3.3-2.695l0-.063a3.094,3.094,0,0,0-3.029-3.385h-.018a.974.974,0,0,1-.936-1.395l.226-.469a3.3,3.3,0,0,1,3.063-1.87,17.255,17.255,0,0,1,3.321.431,3.589,3.589,0,0,0,4.284-3.5l0-.082a4.016,4.016,0,0,0-3.932-4.395l-.2.011a1.518,1.518,0,0,1-1.5-2.092l.013-.032a1.518,1.518,0,0,1,.729-.787,21.849,21.849,0,0,1,8.1-2.185A4.886,4.886,0,0,0,224.1,15.343Z" transform="translate(-190.119 -0.001)" fill="url(#linear-gradient-4)"/>
        <path id="Path_16659" data-name="Path 16659" d="M224.1,15.343l-.027-.109c-.792-3.179-4.052-5.147-6.9-4.108l-.011,0a.558.558,0,0,1-.73-.685c.061-.2.11-.368.147-.505a7.894,7.894,0,1,0-15.251-4.086c-.037.138-.079.309-.125.511a.558.558,0,0,1-.975.228l-.008-.009c-1.944-2.323-5.752-2.249-8.028.109l-.078.081a4.886,4.886,0,0,0,.441,7.517,21.847,21.847,0,0,1,5.921,5.942,1.518,1.518,0,0,1,.237,1.046l0,.034a1.518,1.518,0,0,1-2.344,1.063l-.163-.107a4.016,4.016,0,0,0-5.6,1.84l-.037.074a3.589,3.589,0,0,0,1.961,5.172,17.254,17.254,0,0,1,3.091,1.287,3.3,3.3,0,0,1,1.718,3.151q-.02.261-.038.519a.974.974,0,0,1-1.508.74l-.015-.01a3.043,3.043,0,0,0-4.026.944c.313.054.625.121.938.205a10.369,10.369,0,0,1,7,6.3h0a10.369,10.369,0,0,1,9.212-1.952c.313.084.617.182.915.291a3.043,3.043,0,0,0-3.015-2.831h-.018a.974.974,0,0,1-.936-1.395l.227-.469a3.3,3.3,0,0,1,3.063-1.87,17.255,17.255,0,0,1,3.321.431,3.589,3.589,0,0,0,4.284-3.5l0-.082a4.016,4.016,0,0,0-3.932-4.395l-.2.011a1.518,1.518,0,0,1-1.5-2.092l.013-.032a1.518,1.518,0,0,1,.729-.787,21.849,21.849,0,0,1,8.1-2.185,4.886,4.886,0,0,0,4.141-6.289Z" transform="translate(-190.119 -0.001)" fill="url(#linear-gradient-5)"/>
        <path id="Path_16660" data-name="Path 16660" d="M227.735,15.343l-.027-.109c-.792-3.179-4.052-5.147-6.9-4.108l-.011,0a.558.558,0,0,1-.73-.685c.061-.2.11-.368.147-.505a7.894,7.894,0,1,0-15.251-4.086c-.037.138-.079.309-.125.511a.558.558,0,0,1-.975.228l-.008-.009c-1.944-2.323-5.752-2.249-8.028.109l-.078.081a4.886,4.886,0,0,0,.441,7.517,21.847,21.847,0,0,1,5.921,5.942,1.518,1.518,0,0,1,.237,1.046l0,.034A1.518,1.518,0,0,1,200,22.374l-.163-.107a4.012,4.012,0,0,0-5.58,1.8c.418.073.837.163,1.255.275a14.221,14.221,0,0,1,10.019,9.9h0a14.221,14.221,0,0,1,13.626-3.563c.417.112.825.243,1.223.389a4.012,4.012,0,0,0-3.934-4.347l-.2.011a1.518,1.518,0,0,1-1.5-2.092l.013-.032a1.518,1.518,0,0,1,.729-.787,21.849,21.849,0,0,1,8.1-2.185A4.886,4.886,0,0,0,227.735,15.343Z" transform="translate(-193.759 -0.001)" fill="url(#linear-gradient-6)"/>
        <path id="Path_16661" data-name="Path 16661" d="M236.793,15.343l-.027-.109c-.792-3.179-4.052-5.147-6.9-4.108l-.011,0a.558.558,0,0,1-.73-.685c.061-.2.11-.368.147-.505a7.894,7.894,0,1,0-15.251-4.086c-.037.138-.079.309-.125.511a.558.558,0,0,1-.975.228l-.008-.009c-1.944-2.323-5.752-2.249-8.028.109l-.078.081a5.833,5.833,0,0,0-.442.516c.093.024.186.046.28.072a18.549,18.549,0,0,1,13.36,14.122h0a18.549,18.549,0,0,1,18.631-5.55c.093.025.185.052.277.078a5.873,5.873,0,0,0-.125-.668Z" transform="translate(-202.817 -0.001)" fill="url(#linear-gradient-7)"/>
        <path id="Path_16662" data-name="Path 16662" d="M318.643,10.879h0a18.634,18.634,0,0,1,8.327-5.348,7.892,7.892,0,0,0-12.866-3.448,18.634,18.634,0,0,1,4.538,8.8Z" transform="translate(-300.611 -0.003)" fill="url(#linear-gradient-8)"/>
        <path id="Path_16663" data-name="Path 16663" d="M269.847,47.538a4.213,4.213,0,0,1,3.361-1.51,13.372,13.372,0,0,1,2.422.327,2.764,2.764,0,0,0,3.3-2.695l0-.063a3.094,3.094,0,0,0-3.029-3.385h-.018a.974.974,0,0,1-.936-1.395l.227-.469a3.3,3.3,0,0,1,3.063-1.87,17.255,17.255,0,0,1,3.321.431,3.589,3.589,0,0,0,4.284-3.5l0-.082a4.016,4.016,0,0,0-3.932-4.395l-.2.011a1.518,1.518,0,0,1-1.5-2.092l.013-.032a1.518,1.518,0,0,1,.729-.787,21.849,21.849,0,0,1,8.1-2.185,4.886,4.886,0,0,0,4.141-6.289l-.027-.109c-.792-3.179-4.052-5.147-6.9-4.108l-.011,0a.558.558,0,0,1-.73-.685c.061-.2.11-.368.147-.505A7.894,7.894,0,0,0,280.1,2.49l-12.434,46.4c.582.156,1.325-.353,2.178-1.356Z" transform="translate(-259.229 -2.219)" fill="url(#linear-gradient-9)"/>
        <g id="Group_9271" data-name="Group 9271" transform="translate(1.474 35.983)">
          <g id="Group_9270" data-name="Group 9270">
            <path id="Path_16664" data-name="Path 16664" d="M204.919,330.627l.012-.017h0Z" transform="translate(-204.782 -330.61)" fill="url(#linear-gradient-10)"/>
            <path id="Path_16665" data-name="Path 16665" d="M203.8,330.765c-.048.066-.094.134-.137.2C203.705,330.9,203.751,330.831,203.8,330.765Z" transform="translate(-203.662 -330.748)" fill="url(#linear-gradient-11)"/>
          </g>
        </g>
      </g>
    </g>
    <g id="Group_9278" data-name="Group 9278" transform="translate(6.132 6.543)">
      <g id="Group_9274" data-name="Group 9274" transform="translate(18.804 30.076)">
        <path id="Path_16666" data-name="Path 16666" d="M184.855,355.3a1.229,1.229,0,0,0,.869-1.5l-4.4-16.431a1.229,1.229,0,0,0-2.374.636l4.4,16.431A1.229,1.229,0,0,0,184.855,355.3Z" transform="translate(-178.905 -336.448)" fill="url(#linear-gradient-12)"/>
        <path id="Path_16667" data-name="Path 16667" d="M179.816,336.49a1.229,1.229,0,0,1,1.5.869l4.168,15.556-2.374.636-4.168-15.556A1.229,1.229,0,0,1,179.816,336.49Z" transform="translate(-178.905 -336.447)" fill="url(#linear-gradient-13)"/>
      </g>
      <g id="Group_9277" data-name="Group 9277" transform="translate(0)">
        <path id="Path_16668" data-name="Path 16668" d="M6.284,73.644l.024-.1a4.823,4.823,0,0,1,6.085-3.624l.01,0a.492.492,0,0,0,.644-.6c-.054-.175-.1-.324-.13-.446a6.964,6.964,0,0,1,13.453-3.6c.033.121.07.273.111.451a.492.492,0,0,0,.86.2l.007-.008a4.823,4.823,0,0,1,7.081.1l.069.071a4.31,4.31,0,0,1-.389,6.631,19.273,19.273,0,0,0-5.223,5.242,1.339,1.339,0,0,0-.21.923l0,.03a1.34,1.34,0,0,0,2.068.937l.144-.095a3.543,3.543,0,0,1,4.942,1.623l.033.065A3.166,3.166,0,0,1,34.138,86a15.22,15.22,0,0,0-2.727,1.135,2.91,2.91,0,0,0-1.515,2.78q.017.23.034.458a.859.859,0,0,0,1.33.653l.013-.009a2.729,2.729,0,0,1,3.807,1.25l.025.05a2.439,2.439,0,0,1-1.332,3.514,11.8,11.8,0,0,0-1.995.818,3.716,3.716,0,0,0-1.9,2.636c-.209,1.142-.553,1.859-1.066,2s-1.169-.311-1.921-1.2a3.716,3.716,0,0,0-2.965-1.332,11.8,11.8,0,0,0-2.137.289,2.439,2.439,0,0,1-2.911-2.377l0-.056a2.729,2.729,0,0,1,2.672-2.986h.016a.859.859,0,0,0,.826-1.23l-.2-.413a2.909,2.909,0,0,0-2.7-1.65,15.225,15.225,0,0,0-2.929.38,3.166,3.166,0,0,1-3.779-3.086l0-.073a3.543,3.543,0,0,1,3.469-3.877l.172.01a1.339,1.339,0,0,0,1.322-1.846l-.011-.028a1.34,1.34,0,0,0-.643-.694,19.272,19.272,0,0,0-7.144-1.928,4.31,4.31,0,0,1-3.653-5.548Z" transform="translate(-6.132 -60.11)" fill="url(#linear-gradient-14)"/>
        <path id="Path_16669" data-name="Path 16669" d="M6.284,73.644l.024-.1a4.823,4.823,0,0,1,6.085-3.624l.01,0a.492.492,0,0,0,.644-.6c-.054-.175-.1-.324-.13-.446a6.964,6.964,0,0,1,13.453-3.6c.033.121.07.273.111.451a.492.492,0,0,0,.86.2l.007-.008a4.823,4.823,0,0,1,7.081.1l.069.071a4.31,4.31,0,0,1-.389,6.631,19.273,19.273,0,0,0-5.223,5.242,1.339,1.339,0,0,0-.21.923l0,.03a1.34,1.34,0,0,0,2.068.937l.144-.095a3.543,3.543,0,0,1,4.942,1.623l.033.065A3.166,3.166,0,0,1,34.138,86a15.224,15.224,0,0,0-2.727,1.135,2.91,2.91,0,0,0-1.515,2.78q.017.23.034.458a.859.859,0,0,0,1.33.653l.013-.009a2.684,2.684,0,0,1,3.551.833c-.276.047-.552.107-.828.181a9.147,9.147,0,0,0-6.176,5.555h0a9.147,9.147,0,0,0-8.126-1.722q-.414.111-.807.257a2.685,2.685,0,0,1,2.66-2.5h.016a.859.859,0,0,0,.826-1.23l-.2-.413a2.909,2.909,0,0,0-2.7-1.65,15.225,15.225,0,0,0-2.929.38,3.166,3.166,0,0,1-3.779-3.086l0-.073a3.543,3.543,0,0,1,3.469-3.877l.172.01a1.339,1.339,0,0,0,1.322-1.846l-.011-.028a1.34,1.34,0,0,0-.643-.694,19.272,19.272,0,0,0-7.144-1.928,4.31,4.31,0,0,1-3.653-5.548Z" transform="translate(-6.132 -60.11)" fill="url(#linear-gradient-15)"/>
        <path id="Path_16670" data-name="Path 16670" d="M6.284,73.644l.024-.1a4.823,4.823,0,0,1,6.085-3.624l.01,0a.492.492,0,0,0,.644-.6c-.054-.175-.1-.324-.13-.446a6.964,6.964,0,0,1,13.453-3.6c.033.121.07.273.111.451a.492.492,0,0,0,.86.2l.007-.008a4.823,4.823,0,0,1,7.081.1l.069.071a4.31,4.31,0,0,1-.389,6.631,19.273,19.273,0,0,0-5.223,5.242,1.339,1.339,0,0,0-.21.923l0,.03a1.34,1.34,0,0,0,2.068.937l.144-.095a3.539,3.539,0,0,1,4.923,1.586c-.369.064-.738.144-1.107.243a12.545,12.545,0,0,0-8.838,8.732h0a12.545,12.545,0,0,0-12.02-3.143c-.368.1-.728.214-1.079.343a3.539,3.539,0,0,1,3.47-3.834l.172.01a1.339,1.339,0,0,0,1.322-1.846l-.011-.028a1.34,1.34,0,0,0-.643-.694,19.272,19.272,0,0,0-7.144-1.928,4.31,4.31,0,0,1-3.653-5.548Z" transform="translate(-6.132 -60.11)" fill="url(#linear-gradient-16)"/>
        <path id="Path_16671" data-name="Path 16671" d="M6.629,73.644l.024-.1a4.823,4.823,0,0,1,6.085-3.624l.01,0a.492.492,0,0,0,.644-.6c-.054-.175-.1-.324-.13-.446a6.964,6.964,0,0,1,13.453-3.6c.033.121.07.273.111.451a.492.492,0,0,0,.86.2l.007-.008a4.823,4.823,0,0,1,7.081.1l.069.071a5.14,5.14,0,0,1,.39.455c-.082.021-.164.041-.247.063A16.363,16.363,0,0,0,23.2,79.06h0a16.363,16.363,0,0,0-16.435-4.9l-.245.069a5.108,5.108,0,0,1,.11-.589Z" transform="translate(-6.477 -60.11)" fill="url(#linear-gradient-17)"/>
        <path id="Path_16672" data-name="Path 16672" d="M76.595,69.706h0a16.439,16.439,0,0,0-7.346-4.718A6.962,6.962,0,0,1,80.6,61.947,16.438,16.438,0,0,0,76.595,69.706Z" transform="translate(-62.379 -60.112)" fill="url(#linear-gradient-18)"/>
        <path id="Path_16673" data-name="Path 16673" d="M26.889,102.044a3.716,3.716,0,0,0-2.965-1.332,11.786,11.786,0,0,0-2.137.289,2.439,2.439,0,0,1-2.911-2.377l0-.056a2.729,2.729,0,0,1,2.672-2.986h.016a.859.859,0,0,0,.826-1.23l-.2-.413a2.909,2.909,0,0,0-2.7-1.65,15.225,15.225,0,0,0-2.929.38,3.166,3.166,0,0,1-3.779-3.086l0-.073a3.543,3.543,0,0,1,3.469-3.877l.172.01A1.339,1.339,0,0,0,17.735,83.8l-.011-.028a1.34,1.34,0,0,0-.643-.694,19.272,19.272,0,0,0-7.144-1.928A4.31,4.31,0,0,1,6.284,75.6l.024-.1a4.823,4.823,0,0,1,6.085-3.624l.01,0a.492.492,0,0,0,.644-.6c-.054-.175-.1-.324-.13-.446A6.964,6.964,0,0,1,17.842,62.3L28.81,103.24C28.3,103.377,27.641,102.928,26.889,102.044Z" transform="translate(-6.132 -62.066)" fill="url(#linear-gradient-19)"/>
        <g id="Group_9276" data-name="Group 9276" transform="translate(28.692 31.742)">
          <g id="Group_9275" data-name="Group 9275">
            <path id="Path_16674" data-name="Path 16674" d="M269.76,351.768l-.011-.015h0Z" transform="translate(-269.749 -351.753)" fill="url(#linear-gradient-20)"/>
            <path id="Path_16675" data-name="Path 16675" d="M269.846,351.89c.042.058.083.118.121.18C269.928,352.008,269.888,351.948,269.846,351.89Z" transform="translate(-269.835 -351.875)" fill="url(#linear-gradient-21)"/>
          </g>
        </g>
      </g>
    </g>
  </g>
</svg>
