<svg id="instagram" xmlns="http://www.w3.org/2000/svg" width="45" height="45" viewBox="0 0 45 45">
  <g id="Group_578" data-name="Group 578">
    <g id="Group_577" data-name="Group 577">
      <path id="Path_7074" data-name="Path 7074" d="M23.07,26.284a3.209,3.209,0,1,0-3.213-3.214,3.219,3.219,0,0,0,3.213,3.214Z" transform="translate(-0.57 -0.57)" fill="#e2e2e2"/>
      <path id="Path_7075" data-name="Path 7075" d="M33.986,17.055V13.96h-.4l-2.693.008.01,3.1Z" transform="translate(-2.038 -0.92)" fill="#e2e2e2"/>
      <path id="Path_7076" data-name="Path 7076" d="M22.5,0A22.5,22.5,0,1,0,45,22.5,22.526,22.526,0,0,0,22.5,0ZM35.3,19.874V30.351A4.951,4.951,0,0,1,30.35,35.3H14.65A4.95,4.95,0,0,1,9.7,30.351V14.65A4.95,4.95,0,0,1,14.65,9.7h15.7A4.951,4.951,0,0,1,35.3,14.65Z" fill="#e2e2e2"/>
      <path id="Path_7077" data-name="Path 7077" d="M25.8,23.8a4.994,4.994,0,1,1-9.62-1.873H13.457V29.4a1.75,1.75,0,0,0,1.75,1.749h11.2a1.75,1.75,0,0,0,1.75-1.749V21.929H25.432A4.926,4.926,0,0,1,25.8,23.8Z" transform="translate(1.691 0.241)" fill="#e2e2e2"/>
    </g>
  </g>
</svg>
