<svg xmlns="http://www.w3.org/2000/svg" width="208.203" height="69.221" viewBox="0 0 208.203 69.221" style="background-color:#05253c">
  <g id="Group_9325" data-name="Group 9325" transform="translate(-1649.912 1203.588)">
    <path id="Path_16714" data-name="Path 16714" d="M5.39,0V-41.58h9.24v10.164l-1-1.309a15.337,15.337,0,0,1,2.156-3.927A11.336,11.336,0,0,1,19.1-39.578a13.423,13.423,0,0,1,3.273-1.444,17.335,17.335,0,0,1,3.657-.654,19.526,19.526,0,0,1,3.773.1V-31.8a10.8,10.8,0,0,0-4.023-.366,11.5,11.5,0,0,0-4.139,1.059,9.453,9.453,0,0,0-3.118,2.252,9.449,9.449,0,0,0-1.925,3.311,13.168,13.168,0,0,0-.655,4.293V0ZM51.205,1.155A21.165,21.165,0,0,1,40.194-1.656a19.509,19.509,0,0,1-7.373-7.758A23.816,23.816,0,0,1,30.184-20.79a23.566,23.566,0,0,1,2.7-11.454,19.642,19.642,0,0,1,7.431-7.719,21.165,21.165,0,0,1,10.9-2.772,21.268,21.268,0,0,1,11.03,2.811,19.6,19.6,0,0,1,7.411,7.758A23.676,23.676,0,0,1,72.3-20.79,23.62,23.62,0,0,1,69.627-9.375,19.6,19.6,0,0,1,62.2-1.636,21.306,21.306,0,0,1,51.205,1.155Zm0-9.779q5.043,0,7.527-3.407a14.5,14.5,0,0,0,2.483-8.759q0-5.544-2.522-8.855t-7.488-3.311a9.565,9.565,0,0,0-5.621,1.54,9.065,9.065,0,0,0-3.253,4.274,17.526,17.526,0,0,0-1.059,6.352q0,5.582,2.522,8.874T51.205-8.624ZM95.634,1.155A21.165,21.165,0,0,1,84.623-1.656,19.509,19.509,0,0,1,77.25-9.413,23.817,23.817,0,0,1,74.613-20.79a23.566,23.566,0,0,1,2.695-11.454,19.642,19.642,0,0,1,7.43-7.719,21.165,21.165,0,0,1,10.9-2.772,21.268,21.268,0,0,1,11.03,2.811,19.6,19.6,0,0,1,7.411,7.758,23.676,23.676,0,0,1,2.656,11.377,23.62,23.62,0,0,1-2.676,11.415,19.6,19.6,0,0,1-7.43,7.739A21.307,21.307,0,0,1,95.634,1.155Zm0-9.779q5.044,0,7.527-3.407a14.5,14.5,0,0,0,2.483-8.759q0-5.544-2.522-8.855t-7.488-3.311a9.565,9.565,0,0,0-5.621,1.54,9.065,9.065,0,0,0-3.253,4.274A17.526,17.526,0,0,0,85.7-20.79q0,5.582,2.522,8.874T95.634-8.624ZM146.3,0a40.645,40.645,0,0,1-8.451.712,20.162,20.162,0,0,1-7.392-1.463,9.882,9.882,0,0,1-4.947-4.408,12.781,12.781,0,0,1-1.617-5.794q-.077-2.945-.077-6.68v-35.5h10.472v34.881q0,2.426.058,4.37a6.088,6.088,0,0,0,.789,3.1,5.272,5.272,0,0,0,4.428,2.387A34.332,34.332,0,0,0,146.3-8.7ZM116.732-33.495V-41.58H146.3v8.085Zm51.205,34.65q-7.854,0-12.686-3.561a14.854,14.854,0,0,1-5.871-10.068l10.7-1.617a7.5,7.5,0,0,0,2.907,4.582,9.4,9.4,0,0,0,5.717,1.655,7.491,7.491,0,0,0,4.389-1.1,3.546,3.546,0,0,0,1.54-3.061,3.027,3.027,0,0,0-.616-1.983,6.424,6.424,0,0,0-2.753-1.482q-2.137-.731-6.641-1.925a37.694,37.694,0,0,1-8.124-2.926,10.865,10.865,0,0,1-4.389-3.869,10.426,10.426,0,0,1-1.348-5.448,11.9,11.9,0,0,1,2.04-6.949,13.079,13.079,0,0,1,5.756-4.543,22.051,22.051,0,0,1,8.759-1.6,23.3,23.3,0,0,1,8.663,1.5,15.069,15.069,0,0,1,6.1,4.273,12.759,12.759,0,0,1,2.868,6.545l-10.7,1.925a5.2,5.2,0,0,0-2-3.657,8.589,8.589,0,0,0-4.7-1.578,8.43,8.43,0,0,0-4.639.77,3.02,3.02,0,0,0-1.752,2.772,2.426,2.426,0,0,0,.751,1.809,8.667,8.667,0,0,0,3.118,1.5q2.368.77,7.219,2a31.658,31.658,0,0,1,7.6,2.868,10.8,10.8,0,0,1,4.177,3.927,10.965,10.965,0,0,1,1.309,5.525A12.115,12.115,0,0,1,180.719-2.5Q176.1,1.155,167.937,1.155Z" transform="translate(1644.522 -1150.458)" fill="#fff"/>
    <path id="Path_16713" data-name="Path 16713" d="M40.764-16.965V14.862H10.038Z" transform="translate(1817.35 -1149.229)" fill="#ffdc47"/>
  </g>
</svg>
