<svg id="Icons" xmlns="http://www.w3.org/2000/svg" width="44.933" height="44.934" viewBox="0 0 44.933 44.934">
  <g id="Social-Media-Collection">
    <g id="Twitter">
      <path id="Fill-184" d="M31.4,17.885c.008.2.014.4.014.6A13.111,13.111,0,0,1,11.233,29.526a9.475,9.475,0,0,0,1.1.063,9.245,9.245,0,0,0,5.725-1.973,4.613,4.613,0,0,1-4.307-3.2,4.655,4.655,0,0,0,2.082-.08,4.61,4.61,0,0,1-3.7-4.519v-.059a4.587,4.587,0,0,0,2.088.577A4.613,4.613,0,0,1,12.8,14.181,13.087,13.087,0,0,0,22.3,19a4.611,4.611,0,0,1,7.854-4.2,9.223,9.223,0,0,0,2.928-1.118,4.632,4.632,0,0,1-2.026,2.55A9.249,9.249,0,0,0,33.7,15.5a9.383,9.383,0,0,1-2.3,2.386M22.467,0A22.467,22.467,0,1,0,44.934,22.467,22.466,22.466,0,0,0,22.467,0" transform="translate(0)" fill="#05253c" fill-rule="evenodd"/>
    </g>
  </g>
</svg>
